#!OML:ASF F:\VICON\USERDATA\INSTALL\rory3\rory3.ASF
:FULLY-SPECIFIED
:DEGREES
261
root -0.368974 16.5889 1.25678 22.9025 -7.95447 -6.318
lowerback -2.35965 1.60513 4.30742
upperback -6.58674 2.26088 1.75021
thorax -5.41898 0.954869 -0.641386
lowerneck -14.1441 -2.07013 -5.69601
upperneck 15.7533 -2.50169 4.99482
head 7.297 -1.08536 2.30965
rclavicle 2.01891e-015 -1.97294e-014
rhumerus -35.7369 11.9515 -82.301
rradius 65.9418
rwrist 15.1372
rhand -23.3521 -49.4418
rfingers 7.12502
rthumb 3.10302 -79.399
lclavicle 2.01891e-015 -1.97294e-014
lhumerus -27.3494 -18.4417 73.8293
lradius 74.9855
lwrist 6.02207
lhand -31.885 -34.7296
lfingers 7.12502
lthumb -5.13767 -4.81189
rfemur -50.2683 3.63283 23.6783
rtibia 62.2528
rfoot -10.9734 -11.0566
rtoes -32.1607
lfemur -47.7903 2.96465 -13.0328
ltibia 62.8838
lfoot -17.5702 6.89593
ltoes -26.2649
262
root -0.360195 16.8795 1.31006 22.9016 -7.82058 -6.28877
lowerback -2.99481 1.58996 4.32414
upperback -6.80259 2.20747 1.71786
thorax -5.28755 0.926564 -0.667106
lowerneck -13.6081 -2.09777 -5.90258
upperneck 16.451 -2.59006 5.21737
head 7.44095 -1.12841 2.41558
rclavicle -1.33931e-014 -3.27995e-015
rhumerus -36.237 12.3306 -82.4975
rradius 66.1031
rwrist 15.6567
rhand -23.7547 -48.229
rfingers 7.12502
rthumb 2.71421 -78.1914
lclavicle -1.33931e-014 -3.27995e-015
lhumerus -27.1744 -19.2191 73.6516
lradius 75.9007
lwrist 6.79473
lhand -32.1245 -34.4559
lfingers 7.12502
lthumb -5.36893 -4.54393
rfemur -48.8652 3.33074 23.5825
rtibia 59.4678
rfoot -8.91885 -9.61586
rtoes -36.5739
lfemur -46.2236 2.78944 -12.9399
ltibia 59.7671
lfoot -14.229 5.4376
ltoes -27.1097
263
root -0.354765 17.1906 1.37822 22.6822 -7.89947 -6.07887
lowerback -3.5412 1.63922 4.08729
upperback -6.9547 2.2422 1.63944
thorax -5.14117 0.955008 -0.602826
lowerneck -13.1238 -2.10278 -6.08171
upperneck 17.2087 -2.63328 5.32168
head 7.60957 -1.15906 2.48399
rclavicle -4.39159e-014 -6.01324e-015
rhumerus -36.8565 12.8437 -82.6702
rradius 66.2885
rwrist 15.8826
rhand -24.3919 -47.0672
rfingers 7.12502
rthumb 2.09892 -77.0367
lclavicle -4.39159e-014 -6.01324e-015
lhumerus -27.0021 -20.1031 73.619
lradius 76.6618
lwrist 7.81145
lhand -32.2505 -34.4438
lfingers 7.12502
lthumb -5.49056 -4.53497
rfemur -47.1892 3.20561 23.2302
rtibia 56.5989
rfoot -2.6369 -7.37946
rtoes -31.4036
lfemur -44.2815 2.65306 -13.0783
ltibia 56.4718
lfoot -10.4715 3.83994
ltoes -27.5018
264
root -0.345447 17.5261 1.46014 22.299 -8.19255 -6.08274
lowerback -4.08357 1.78487 4.11389
upperback -6.93361 2.39955 1.54489
thorax -4.80069 1.03618 -0.698699
lowerneck -12.4459 -2.10789 -6.46682
upperneck 17.6649 -2.6999 5.74429
head 7.65291 -1.18804 2.6888
rclavicle 7.84889e-015 -2.85256e-014
rhumerus -37.4903 13.3275 -82.9371
rradius 66.4912
rwrist 16.1976
rhand -25.2266 -45.8743
rfingers 7.12502
rthumb 1.2927 -75.8501
lclavicle 7.84889e-015 -2.85256e-014
lhumerus -26.8407 -20.8334 73.5635
lradius 77.2599
lwrist 8.30265
lhand -32.4281 -35.2262
lfingers 7.12502
lthumb -5.66208 -5.32181
rfemur -45.2805 3.4247 22.9578
rtibia 53.5832
rfoot 1.4732 -5.39895
rtoes -31.5442
lfemur -42.0228 2.71285 -13.0673
ltibia 53.0585
lfoot -6.28454 2.19058
ltoes -26.8855
265
root -0.332631 17.8755 1.55505 21.8307 -8.74804 -6.22983
lowerback -4.61426 1.96975 4.2711
upperback -6.75647 2.60221 1.46836
thorax -4.29662 1.13936 -0.842789
lowerneck -12.1753 -2.07351 -6.76463
upperneck 18.2118 -2.70638 6.12681
head 7.7932 -1.18123 2.87302
rclavicle -2.57787e-014 4.68076e-015
rhumerus -38.0721 13.7861 -83.2886
rradius 66.8498
rwrist 16.6254
rhand -25.4054 -45.9982
rfingers 7.12502
rthumb 1.12004 -75.975
lclavicle -2.57787e-014 4.68076e-015
lhumerus -26.8678 -21.2266 73.4446
lradius 77.9371
lwrist 8.48557
lhand -32.7892 -36.5031
lfingers 7.12502
lthumb -6.01072 -6.6084
rfemur -43.2759 4.02554 22.6328
rtibia 50.4901
rfoot 6.30669 -3.60173
rtoes -29.0657
lfemur -39.599 2.89559 -12.9731
ltibia 49.5552
lfoot -1.52331 0.80636
ltoes -25.8555
266
root -0.322064 18.2231 1.65293 21.0463 -9.28744 -6.11161
lowerback -4.86378 2.12656 4.15167
upperback -6.38934 2.78104 1.33838
thorax -3.75913 1.24551 -0.89182
lowerneck -12.7476 -2.09906 -6.65751
upperneck 19.1765 -2.75168 6.04751
head 8.21777 -1.19555 2.8346
rclavicle -4.86091e-015 -2.09345e-014
rhumerus -38.4191 14.0574 -83.5282
rradius 67.1679
rwrist 16.9546
rhand -24.8565 -47.266
rfingers 7.12502
rthumb 1.65018 -77.2394
lclavicle -4.86091e-015 -2.09345e-014
lhumerus -26.794 -21.5747 73.3428
lradius 78.6854
lwrist 8.80287
lhand -33.1077 -37.3732
lfingers 7.12502
lthumb -6.31816 -7.48739
rfemur -40.917 4.61269 22.0376
rtibia 47.3214
rfoot 10.4503 -2.24407
rtoes -27.2526
lfemur -36.9321 2.80805 -13.0979
ltibia 46.0129
lfoot 3.5244 -0.163398
ltoes -24.072
267
root -0.319709 18.5507 1.70497 21.2081 -8.94744 -5.84929
lowerback -5.64423 2.03728 3.88857
upperback -6.45114 2.62395 1.27561
thorax -3.40132 1.18224 -0.786131
lowerneck -12.7761 -2.09492 -6.73009
upperneck 19.8256 -2.77781 6.1516
head 8.4448 -1.20389 2.88833
rclavicle 2.68934e-014 -1.54058e-014
rhumerus -38.9719 14.2228 -83.7061
rradius 67.5303
rwrist 17.1661
rhand -25.5999 -45.6953
rfingers 7.12502
rthumb 0.932166 -75.673
lclavicle 2.68934e-014 -1.54058e-014
lhumerus -26.7474 -22.0022 73.3581
lradius 79.3061
lwrist 9.31438
lhand -33.3465 -37.7425
lfingers 7.12502
lthumb -6.5487 -7.86376
rfemur -39.7638 4.59141 21.6117
rtibia 44.3387
rfoot 13.7568 -2.12277
rtoes -27.0007
lfemur -35.9298 2.32573 -13.101
ltibia 42.7765
lfoot 8.66082 -1.22174
ltoes -21.7001
268
root -0.300997 18.8993 1.79431 20.7397 -9.07768 -5.99836
lowerback -6.04818 2.10059 4.22657
upperback -6.42692 2.67185 1.25468
thorax -3.13548 1.1969 -0.978433
lowerneck -12.403 -2.08313 -6.55419
upperneck 20.6194 -2.7853 5.82892
head 8.6386 -1.23455 2.76012
rclavicle -2.05276e-014 -1.2598e-014
rhumerus -40.132 14.4838 -84.0257
rradius 68.118
rwrist 17.2946
rhand -25.7873 -45.0246
rfingers 7.12502
rthumb 0.751215 -75.003
lclavicle -2.05276e-014 -1.2598e-014
lhumerus -27.2389 -22.3513 73.5067
lradius 79.9082
lwrist 10.0201
lhand -33.7693 -38.345
lfingers 7.12502
lthumb -6.9569 -8.47934
rfemur -37.6796 4.51216 21.6592
rtibia 41.6183
rfoot 16.3173 -2.34078
rtoes -25.6682
lfemur -34.0121 2.12152 -12.8505
ltibia 39.9042
lfoot 12.958 -1.83409
ltoes -19.6169
269
root -0.284599 19.2184 1.87484 20.803 -8.96828 -6.15739
lowerback -6.81198 2.10954 4.61196
upperback -6.24195 2.6132 1.20606
thorax -2.50434 1.16647 -1.21341
lowerneck -14.2334 -2.29222 -5.74537
upperneck 22.4105 -2.96323 4.7152
head 9.58429 -1.34884 2.23349
rclavicle -3.047e-015 7.8023e-015
rhumerus -40.477 14.6803 -84.2604
rradius 68.5863
rwrist 17.1606
rhand -25.7327 -45.2218
rfingers 7.12502
rthumb 0.803922 -75.2001
lclavicle -3.047e-015 7.8023e-015
lhumerus -26.9888 -22.4245 73.3041
lradius 80.4133
lwrist 10.7966
lhand -34.2807 -39.6959
lfingers 7.12502
lthumb -7.45056 -9.84707
rfemur -36.3912 4.21409 21.805
rtibia 39.4734
rfoot 17.3675 -2.94259
rtoes -25.716
lfemur -33.138 1.84162 -12.5165
ltibia 37.6724
lfoot 16.3381 -2.11172
ltoes -16.9127
270
root -0.285173 19.4895 1.9007 21.1861 -8.88996 -5.85908
lowerback -7.34408 2.02202 4.16078
upperback -6.34094 2.48749 1.11029
thorax -2.33129 1.11948 -1.05075
lowerneck -15.362 -2.40302 -5.28126
upperneck 23.6579 -3.04878 4.04464
head 10.2315 -1.41367 1.91476
rclavicle -3.35076e-014 -1.75924e-014
rhumerus -40.9655 14.9524 -84.545
rradius 69.0655
rwrist 16.6464
rhand -26.0575 -45.3415
rfingers 7.12502
rthumb 0.490196 -75.3206
lclavicle -3.35076e-014 -1.75924e-014
lhumerus -26.8334 -22.559 73.1288
lradius 80.8379
lwrist 11.5727
lhand -34.5078 -40.8301
lfingers 7.12502
lthumb -7.6697 -10.9892
rfemur -36.0707 4.54586 21.3527
rtibia 37.9873
rfoot 18.0201 -4.23192
rtoes -25.9215
lfemur -33.1889 1.57467 -12.5949
ltibia 36.0443
lfoot 18.4646 -1.46925
ltoes -14.3804
271
root -0.276779 19.7433 1.94209 21.2959 -8.84387 -5.75744
lowerback -7.95288 2.01573 4.11458
upperback -6.28942 2.44375 1.02861
thorax -1.94179 1.10497 -1.08981
lowerneck -15.4202 -2.43712 -5.28015
upperneck 24.0102 -3.07814 3.94136
head 10.3706 -1.43966 1.8768
rclavicle -1.51201e-014 -2.14687e-014
rhumerus -41.6321 15.1558 -84.7449
rradius 69.6961
rwrist 15.9277
rhand -26.3223 -44.5534
rfingers 7.12502
rthumb 0.234442 -74.533
lclavicle -1.51201e-014 -2.14687e-014
lhumerus -26.8449 -22.8042 73.0494
lradius 81.2988
lwrist 12.2628
lhand -34.7357 -40.791
lfingers 7.12502
lthumb -7.88966 -10.9582
rfemur -35.6722 4.93157 21.0465
rtibia 37.2174
rfoot 18.7714 -5.20437
rtoes -24.2162
lfemur -32.9176 1.3615 -12.6224
ltibia 35.1042
lfoot 18.6319 0.264791
ltoes -15.8305
